<svg width="78" height="38" viewBox="0 0 78 38" fill="none" xmlns="http://www.w3.org/2000/svg">
<g clip-path="url(#clip0_735_5291)">
<path d="M7.92919 28.0077L8.19388 25.8629H3.44098C2.45127 25.8629 1.77804 25.6132 1.42703 25.1139C1.07028 24.6146 0.93218 24.0358 1.01274 23.3889C1.0933 22.7364 1.36949 22.1917 1.84709 21.7491C2.31892 21.3065 3.0497 21.0795 4.03941 21.0795H20.7782C21.7679 21.0795 22.4411 21.3008 22.8094 21.7491C23.1719 22.1917 23.3157 22.7421 23.2352 23.3889C23.1546 24.0358 22.8727 24.6146 22.3893 25.1139C21.906 25.6132 21.1752 25.8629 20.1797 25.8629H14.4716L14.2069 28.0077H7.92919ZM9.08002 19.8653C7.01429 19.8653 5.54123 19.3886 4.67236 18.4297C3.80349 17.4764 3.45824 16.2395 3.64813 14.7188C3.68841 14.3897 3.79198 14.0379 3.94159 13.6407C2.90009 13.3627 2.44551 12.6591 2.58361 11.5526C2.66993 10.8603 2.96339 10.3099 3.44673 9.91276C3.93583 9.50989 4.58605 9.31129 5.40313 9.31129H10.3862C10.6106 8.52258 11.0307 7.95516 11.6348 7.58634C12.239 7.21752 12.9986 7.03027 13.8962 7.03027C14.7766 7.03027 15.4786 7.21185 16.008 7.58634C16.5316 7.96084 16.8021 8.52826 16.8136 9.31129H21.7679C22.5849 9.31129 23.1891 9.50989 23.5747 9.91276C23.9602 10.3156 24.1155 10.8603 24.0292 11.5526C23.9602 12.0746 23.7703 12.5172 23.4481 12.8747C23.1258 13.2322 22.7058 13.4761 22.1822 13.6066C22.2685 13.9755 22.2857 14.3386 22.2455 14.7131C22.0556 16.2338 21.4054 17.4651 20.3006 18.424C19.19 19.383 17.5961 19.8596 15.5304 19.8596L9.08002 19.8653ZM4.41342 33.4379C3.51003 33.4379 2.8483 33.228 2.42825 32.8081C2.0082 32.3825 1.84133 31.8037 1.9334 31.0718C2.02546 30.3341 2.33043 29.761 2.85406 29.3639C3.37768 28.961 4.08544 28.7624 4.99459 28.7624H25.859C26.8545 28.7624 27.6428 28.8418 28.2412 29.0064C28.8397 29.1709 29.2827 29.4376 29.582 29.8008C29.8754 30.1696 30.0423 30.6746 30.0883 31.3158C30.1286 31.957 30.0941 32.7457 29.979 33.6762L29.4439 38.0056H22.8381L23.3215 34.1642C23.3848 33.6819 23.1661 33.4436 22.6885 33.4436H4.41342V33.4379ZM14.7248 15.865C15.2312 15.865 15.634 15.7345 15.9274 15.4848C16.2266 15.2351 16.3878 14.9514 16.4338 14.6223C16.4741 14.2762 16.3762 13.9925 16.1461 13.7599C15.9102 13.5272 15.5419 13.4194 15.0355 13.4194H11.2033C10.6969 13.4194 10.2941 13.5329 10.0064 13.7599C9.71873 13.9925 9.5461 14.2762 9.50007 14.6223C9.45979 14.9514 9.55761 15.2351 9.78778 15.4848C10.0237 15.7345 10.392 15.865 10.8983 15.865H14.7248ZM26.0086 10.6504C26.1352 9.58366 26.5726 8.7836 27.3148 8.23887C28.0571 7.69983 28.8627 7.42747 29.7431 7.42747C30.1631 7.42747 30.5602 7.50123 30.9572 7.63741C31.3427 7.77927 31.6765 7.98354 31.9469 8.2559C32.2173 8.52826 32.4303 8.86303 32.5626 9.2659C32.7007 9.66877 32.7352 10.1284 32.6719 10.6447L30.5314 27.8318H23.8739L26.0086 10.6504Z" fill="#111229"/>
<path fill-rule="evenodd" clip-rule="evenodd" d="M53.1048 0C45.7568 0 39.0705 5.87278 38.1613 13.1244L36.5271 26.2431L36.2682 28.3709C36.0668 30.0051 37.9657 30.8278 39.2891 29.6703L43.1904 26.2431H49.8422H62.7142C70.0622 26.2431 76.7485 20.3703 77.6519 13.1244C78.5495 5.87845 73.3305 0 65.9767 0H53.1048Z" fill="#FF7CAA"/>
<path d="M55.6596 16.7044C55.625 17.0732 55.5387 17.4591 55.4006 17.8563C55.2625 18.2535 55.0209 18.6166 54.6871 18.9457C54.3534 19.2748 53.8873 19.5585 53.3004 19.7855C52.7135 20.0181 51.9539 20.1486 51.0217 20.1884C50.8951 20.1997 50.7398 20.194 50.5614 20.1827C50.383 20.1713 50.1989 20.1486 50.009 20.1146C49.8191 20.0806 49.6408 20.0408 49.4681 19.9898C49.2955 19.9387 49.1632 19.882 49.0596 19.8195C48.8582 19.7004 48.7258 19.5131 48.6625 19.2578C48.5993 19.0025 48.6223 18.7528 48.7374 18.5201C48.8409 18.3045 48.9963 18.1286 49.2092 18.0038C49.4221 17.879 49.6465 17.8336 49.8824 17.8676C50.0838 17.896 50.291 17.9244 50.5096 17.9471C50.7283 17.9698 50.9642 17.9868 51.2231 17.9868C51.5166 17.9868 51.7698 17.9527 51.9884 17.8846C52.2071 17.8166 52.3855 17.7258 52.5351 17.6066C52.6847 17.4874 52.794 17.3569 52.8746 17.2151C52.9551 17.0732 52.9954 16.92 53.0127 16.7668L53.0357 16.5228C52.7767 16.7612 52.4775 16.9427 52.1323 17.0732C51.7928 17.2037 51.4073 17.2718 50.9872 17.2718C50.5269 17.2718 50.1068 17.2151 49.7156 17.0959C49.3243 16.9768 48.9963 16.7782 48.7143 16.4945C48.4324 16.2108 48.231 15.8306 48.0986 15.354C47.9663 14.8773 47.9318 14.2872 47.9951 13.5836L48.0469 12.9878C48.1102 12.2729 48.2483 11.6771 48.4669 11.2005C48.6856 10.7238 48.956 10.338 49.284 10.0486C49.612 9.75921 49.986 9.55494 50.4003 9.43011C50.8146 9.31095 51.2519 9.24854 51.7065 9.24854C52.0575 9.24854 52.397 9.31095 52.7365 9.43578C53.076 9.56062 53.3637 9.75354 53.6053 10.0032C53.7377 9.74786 53.9276 9.56062 54.1692 9.43578C54.4167 9.31095 54.6756 9.24854 54.9518 9.24854C55.3201 9.24854 55.6308 9.36202 55.884 9.58899C56.1372 9.81595 56.2465 10.1564 56.2062 10.6047L55.6596 16.7044ZM50.7973 13.8333C50.7743 14.0659 50.7973 14.2645 50.8606 14.4177C50.9239 14.5709 51.0102 14.6958 51.1138 14.7979C51.2174 14.9 51.3382 14.9681 51.4706 15.0078C51.6029 15.0476 51.7295 15.0702 51.8503 15.0702C51.9712 15.0702 52.0978 15.0476 52.2359 15.0078C52.374 14.9681 52.5005 14.9 52.6271 14.8092C52.748 14.7184 52.8573 14.5993 52.9551 14.4518C53.0529 14.3042 53.1105 14.1227 53.1393 13.9014L53.2428 12.7325C53.2543 12.5169 53.2256 12.3296 53.1565 12.1821C53.0875 12.0346 53.0012 11.9154 52.8918 11.8246C52.7825 11.7338 52.6674 11.6657 52.5408 11.626C52.4085 11.5863 52.2876 11.5636 52.1668 11.5636C52.046 11.5636 51.9194 11.5863 51.7755 11.626C51.6317 11.6657 51.4993 11.7395 51.3785 11.836C51.2577 11.9381 51.1483 12.0629 51.0563 12.2218C50.9642 12.3807 50.9067 12.5736 50.8894 12.8006L50.7973 13.8333Z" fill="white"/>
<path d="M57.2533 12.9768C57.3166 12.2448 57.4893 11.6377 57.7712 11.161C58.0532 10.6844 58.3984 10.2986 58.807 10.0092C59.2155 9.71979 59.6643 9.51552 60.1477 9.39636C60.631 9.2772 61.1028 9.22046 61.5747 9.22046C62.035 9.22046 62.4953 9.2772 62.9557 9.39636C63.416 9.51552 63.8303 9.71979 64.1871 10.0092C64.5438 10.2986 64.8258 10.6844 65.0272 11.161C65.2285 11.6377 65.2976 12.2448 65.2285 12.9768L65.1192 14.2251C65.0559 14.9571 64.8775 15.5642 64.5956 16.0408C64.3079 16.5175 63.9626 16.9033 63.5541 17.1927C63.1456 17.4821 62.6967 17.6863 62.2134 17.8055C61.73 17.9247 61.2582 17.9814 60.8036 17.9814C60.3433 17.9814 59.883 17.9247 59.4226 17.8055C58.9623 17.6863 58.548 17.4821 58.1913 17.1927C57.8345 16.9033 57.5526 16.5175 57.3512 16.0408C57.1498 15.5642 57.0807 14.9571 57.1498 14.2251L57.2533 12.9768ZM62.4781 12.8576C62.5011 12.6136 62.4838 12.4093 62.4205 12.2391C62.363 12.0746 62.2824 11.9327 62.1731 11.8249C62.0695 11.7171 61.9429 11.6377 61.8048 11.5866C61.661 11.5355 61.5171 11.5128 61.3733 11.5128C61.2237 11.5128 61.0798 11.5355 60.9245 11.5866C60.7749 11.6377 60.6368 11.7171 60.5102 11.8249C60.3836 11.9327 60.28 12.0689 60.1937 12.2391C60.1074 12.4037 60.0498 12.6136 60.0268 12.8576L59.8945 14.3499C59.8715 14.5939 59.8887 14.7982 59.952 14.9684C60.0096 15.133 60.0901 15.2748 60.1994 15.3826C60.303 15.4904 60.4296 15.5699 60.5677 15.6209C60.7116 15.672 60.8554 15.6947 60.9993 15.6947C61.1431 15.6947 61.2927 15.672 61.4481 15.6209C61.5977 15.5699 61.7358 15.4904 61.8624 15.3826C61.989 15.2748 62.0926 15.1386 62.1789 14.9684C62.2652 14.8039 62.3227 14.5939 62.3457 14.3499L62.4781 12.8576Z" fill="white"/>
</g>
<defs>
<clipPath id="clip0_735_5291">
<rect width="76.76" height="38" fill="white" transform="translate(0.989746)"/>
</clipPath>
</defs>
</svg>
