<svg width="79" height="38" viewBox="0 0 79 38" fill="none" xmlns="http://www.w3.org/2000/svg">
<g clip-path="url(#clip0_698_7837)">
<path d="M7.95485 28.0077L8.22051 25.8629H3.4502C2.45686 25.8629 1.78116 25.6132 1.42888 25.1139C1.07082 24.6146 0.932211 24.0358 1.01306 23.3889C1.09392 22.7364 1.37113 22.1917 1.85047 21.7491C2.32403 21.3065 3.05748 21.0795 4.05082 21.0795H20.8509C21.8442 21.0795 22.5199 21.3008 22.8895 21.7491C23.2533 22.1917 23.3977 22.7421 23.3169 23.3889C23.236 24.0358 22.953 24.6146 22.4679 25.1139C21.9828 25.6132 21.2493 25.8629 20.2502 25.8629H14.5212L14.2556 28.0077H7.95485ZM9.10989 19.8653C7.03659 19.8653 5.55814 19.3886 4.68609 18.4297C3.81403 17.4764 3.46752 16.2395 3.6581 14.7188C3.69853 14.3897 3.80248 14.0379 3.95264 13.6407C2.90733 13.3627 2.45109 12.6591 2.58969 11.5526C2.67632 10.8603 2.97085 10.31 3.45597 9.91276C3.94686 9.50989 4.59946 9.31129 5.41954 9.31129H10.4209C10.6461 8.52258 11.0677 7.95516 11.6741 7.58634C12.2805 7.21752 13.0428 7.03027 13.9437 7.03027C14.8273 7.03027 15.5319 7.21185 16.0632 7.58634C16.5888 7.96084 16.8602 8.52826 16.8717 9.31129H21.8442C22.6643 9.31129 23.2707 9.50989 23.6576 9.91276C24.0445 10.3156 24.2005 10.8603 24.1138 11.5526C24.0445 12.0746 23.854 12.5172 23.5305 12.8747C23.2071 13.2322 22.7855 13.4761 22.26 13.6067C22.3466 13.9755 22.364 14.3386 22.3235 14.7131C22.1329 16.2338 21.4804 17.4651 20.3715 18.424C19.2569 19.383 17.6572 19.8596 15.5839 19.8596L9.10989 19.8653ZM4.4262 33.4379C3.5195 33.4379 2.85535 33.228 2.43376 32.8081C2.01217 32.3825 1.84469 31.8038 1.93709 31.0718C2.0295 30.3341 2.33558 29.761 2.86113 29.3639C3.38667 28.961 4.09702 28.7624 5.0095 28.7624H25.9504C26.9495 28.7624 27.7407 28.8418 28.3413 29.0064C28.9419 29.1709 29.3866 29.4376 29.6869 29.8008C29.9814 30.1696 30.1489 30.6746 30.1951 31.3158C30.2355 31.957 30.2009 32.7457 30.0854 33.6762L29.5483 38.0056H22.9184L23.4035 34.1642C23.467 33.6819 23.2476 33.4436 22.7682 33.4436H4.4262V33.4379ZM14.7754 15.865C15.2836 15.865 15.6878 15.7345 15.9824 15.4848C16.2827 15.2351 16.4444 14.9514 16.4906 14.6223C16.531 14.2762 16.4328 13.9925 16.2018 13.7599C15.965 13.5272 15.5954 13.4194 15.0872 13.4194H11.2409C10.7327 13.4194 10.3285 13.5329 10.0397 13.7599C9.75093 13.9925 9.57768 14.2762 9.53148 14.6223C9.49105 14.9514 9.58923 15.2351 9.82024 15.4848C10.057 15.7345 10.4266 15.865 10.9348 15.865H14.7754ZM26.1005 10.6504C26.2276 9.58366 26.6665 8.7836 27.4115 8.23887C28.1565 7.69983 28.965 7.42747 29.8486 7.42747C30.2702 7.42747 30.6687 7.50123 31.0672 7.63741C31.4541 7.77927 31.7891 7.98354 32.0605 8.2559C32.3319 8.52826 32.5456 8.86303 32.6785 9.2659C32.8171 9.66877 32.8517 10.1284 32.7882 10.6447L30.6398 27.8318H23.9579L26.1005 10.6504Z" fill="white"/>
<path fill-rule="evenodd" clip-rule="evenodd" d="M53.2959 0C45.921 0 39.2102 5.87278 38.2977 13.1244L36.6575 26.2431L36.3977 28.3709C36.1955 30.0051 38.1013 30.8278 39.4296 29.6703L43.3452 26.2431H50.0213H62.9405C70.3154 26.2431 77.0261 20.3703 77.9329 13.1244C78.8338 5.87845 73.5957 0 66.215 0H53.2959Z" fill="white"/>
<path d="M55.8599 16.7049C55.8252 17.0737 55.7386 17.4596 55.6 17.8568C55.4614 18.254 55.2188 18.6171 54.8839 18.9462C54.5489 19.2753 54.0811 19.559 53.492 19.786C52.903 20.0186 52.1406 20.1491 51.2051 20.1888C51.078 20.2002 50.9221 20.1945 50.743 20.1832C50.564 20.1718 50.3792 20.1491 50.1886 20.1151C49.998 20.081 49.819 20.0413 49.6458 19.9903C49.4725 19.9392 49.3397 19.8824 49.2357 19.82C49.0336 19.7009 48.9008 19.5136 48.8372 19.2583C48.7737 19.0029 48.7968 18.7533 48.9123 18.5206C49.0163 18.305 49.1722 18.1291 49.3859 18.0043C49.5996 17.8795 49.8248 17.8341 50.0616 17.8681C50.2637 17.8965 50.4716 17.9248 50.6911 17.9475C50.9105 17.9702 51.1473 17.9873 51.4072 17.9873C51.7017 17.9873 51.9558 17.9532 52.1753 17.8851C52.3947 17.817 52.5738 17.7263 52.7239 17.6071C52.8741 17.4879 52.9838 17.3574 53.0647 17.2156C53.1455 17.0737 53.186 16.9205 53.2033 16.7673L53.2264 16.5233C52.9665 16.7616 52.6662 16.9432 52.3197 17.0737C51.9789 17.2042 51.592 17.2723 51.1704 17.2723C50.7084 17.2723 50.2868 17.2156 49.8941 17.0964C49.5014 16.9773 49.1722 16.7787 48.8892 16.495C48.6062 16.2112 48.4041 15.8311 48.2713 15.3544C48.1384 14.8778 48.1038 14.2877 48.1673 13.5841L48.2193 12.9883C48.2828 12.2734 48.4214 11.6776 48.6409 11.2009C48.8603 10.7243 49.1318 10.3385 49.4609 10.0491C49.7901 9.7597 50.1655 9.55543 50.5813 9.4306C50.9972 9.31144 51.4361 9.24902 51.8923 9.24902C52.2446 9.24902 52.5853 9.31144 52.9261 9.43627C53.2668 9.5611 53.5556 9.75403 53.7981 10.0037C53.931 9.74835 54.1215 9.5611 54.3641 9.43627C54.6124 9.31144 54.8723 9.24902 55.1495 9.24902C55.5191 9.24902 55.831 9.36251 56.0851 9.58947C56.3392 9.81644 56.4489 10.1569 56.4085 10.6052L55.8599 16.7049ZM50.9798 13.8338C50.9567 14.0664 50.9798 14.265 51.0433 14.4182C51.1069 14.5714 51.1935 14.6962 51.2975 14.7984C51.4014 14.9005 51.5227 14.9686 51.6555 15.0083C51.7884 15.048 51.9154 15.0707 52.0367 15.0707C52.158 15.0707 52.285 15.048 52.4236 15.0083C52.5622 14.9686 52.6893 14.9005 52.8163 14.8097C52.9376 14.7189 53.0473 14.5998 53.1455 14.4522C53.2437 14.3047 53.3015 14.1231 53.3303 13.9019L53.4343 12.733C53.4458 12.5174 53.417 12.3301 53.3477 12.1826C53.2784 12.035 53.1917 11.9159 53.082 11.8251C52.9723 11.7343 52.8568 11.6662 52.7297 11.6265C52.5969 11.5868 52.4756 11.5641 52.3543 11.5641C52.233 11.5641 52.106 11.5868 51.9616 11.6265C51.8172 11.6662 51.6844 11.74 51.5631 11.8365C51.4418 11.9386 51.3321 12.0634 51.2397 12.2223C51.1473 12.3812 51.0896 12.5741 51.0722 12.8011L50.9798 13.8338Z" fill="#6F6F6F"/>
<path d="M57.4596 12.977C57.5231 12.245 57.6964 11.6379 57.9794 11.1613C58.2624 10.6846 58.6089 10.2988 59.0189 10.0094C59.429 9.72003 59.8794 9.51576 60.3645 9.3966C60.8497 9.27744 61.3232 9.2207 61.7968 9.2207C62.2588 9.2207 62.7208 9.27744 63.1828 9.3966C63.6449 9.51576 64.0607 9.72003 64.4187 10.0094C64.7768 10.2988 65.0598 10.6846 65.2619 11.1613C65.464 11.6379 65.5333 12.245 65.464 12.977L65.3543 14.2253C65.2908 14.9573 65.1118 15.5644 64.8288 16.0411C64.54 16.5177 64.1935 16.9035 63.7835 17.1929C63.3734 17.4823 62.923 17.6866 62.4378 17.8057C61.9527 17.9249 61.4792 17.9816 61.0229 17.9816C60.5609 17.9816 60.0989 17.9249 59.6369 17.8057C59.1749 17.6866 58.759 17.4823 58.401 17.1929C58.0429 16.9035 57.7599 16.5177 57.5578 16.0411C57.3557 15.5644 57.2864 14.9573 57.3557 14.2253L57.4596 12.977ZM62.7035 12.8579C62.7266 12.6139 62.7093 12.4096 62.6457 12.2394C62.588 12.0748 62.5071 11.933 62.3974 11.8252C62.2935 11.7173 62.1664 11.6379 62.0278 11.5868C61.8834 11.5358 61.739 11.5131 61.5947 11.5131C61.4445 11.5131 61.3001 11.5358 61.1442 11.5868C60.994 11.6379 60.8554 11.7173 60.7284 11.8252C60.6013 11.933 60.4974 12.0691 60.4107 12.2394C60.3241 12.4039 60.2664 12.6139 60.2433 12.8579L60.1104 14.3502C60.0873 14.5942 60.1047 14.7984 60.1682 14.9686C60.2259 15.1332 60.3068 15.2751 60.4165 15.3829C60.5205 15.4907 60.6475 15.5701 60.7861 15.6212C60.9305 15.6722 61.0749 15.6949 61.2193 15.6949C61.3637 15.6949 61.5138 15.6722 61.6697 15.6212C61.8199 15.5701 61.9585 15.4907 62.0856 15.3829C62.2126 15.2751 62.3166 15.1389 62.4032 14.9686C62.4898 14.8041 62.5476 14.5942 62.5707 14.3502L62.7035 12.8579Z" fill="#6F6F6F"/>
</g>
<defs>
<clipPath id="clip0_698_7837">
<rect width="77.0411" height="38" fill="white" transform="translate(0.989746)"/>
</clipPath>
</defs>
</svg>
