<svg width="88" height="24" viewBox="0 0 88 24" fill="none" xmlns="http://www.w3.org/2000/svg">
<path d="M8.32507 23.9953L9.41074 15.7663C9.45877 15.3868 9.44436 15.0649 9.35789 14.8007C9.27142 14.5365 9.15133 14.3203 8.9928 14.1522C8.83427 13.984 8.64692 13.8687 8.44036 13.8015C8.22899 13.7342 8.02723 13.7006 7.83027 13.7006C7.63331 13.7006 7.42194 13.7342 7.19616 13.8015C6.97038 13.8687 6.75421 13.9792 6.55245 14.133C6.35069 14.2867 6.17294 14.4836 6.01922 14.7334C5.8655 14.9832 5.75501 15.2907 5.69256 15.6558L4.59248 23.9953H0L2.23379 7.06169C2.28183 6.68219 2.39232 6.35553 2.55565 6.0721C2.71898 5.79348 2.92074 5.55809 3.15613 5.36593C3.39152 5.17858 3.65573 5.03447 3.94876 4.93359C4.2418 4.83751 4.53964 4.78467 4.83747 4.78467C5.14012 4.78467 5.41874 4.83271 5.67815 4.93359C5.93755 5.03447 6.15853 5.17378 6.34588 5.36593C6.53323 5.55328 6.67254 5.78867 6.76382 6.0721C6.85509 6.35072 6.8743 6.68219 6.82627 7.06169L6.32186 10.8807C6.75901 10.5301 7.2442 10.2659 7.77262 10.0737C8.30105 9.88635 8.8679 9.79028 9.47319 9.79028C10.213 9.79028 10.8951 9.89116 11.5244 10.0977C12.1537 10.3043 12.6774 10.6454 13.0953 11.1305C13.5132 11.6157 13.8111 12.2595 13.9936 13.0617C14.1762 13.8639 14.1858 14.8631 14.0272 16.0593L12.98 23.9904H8.32026L8.32507 23.9953Z" fill="white"/>
<path d="M31.2399 23.9953H26.8299L25.4945 16.4725L22.0597 23.9953H17.6498L15.7811 12.7928C15.7186 12.4613 15.7234 12.1298 15.7859 11.8032C15.8531 11.4765 15.9636 11.1835 16.127 10.9145C16.2903 10.6503 16.5017 10.4245 16.7611 10.2323C17.0205 10.045 17.3039 9.92008 17.6113 9.85763C18.2791 9.72312 18.8651 9.77596 19.3792 10.0162C19.8884 10.2563 20.191 10.7367 20.2775 11.4477L21.0701 18.6535L24.1013 11.6062C24.3607 11.0009 24.6874 10.5686 25.0765 10.3092C25.4656 10.0498 25.8932 9.92488 26.3591 9.92488C26.8251 9.92488 27.2334 10.0402 27.5793 10.2756C27.9252 10.511 28.1558 10.9481 28.2663 11.5822L29.4288 18.7159L32.0901 11.4189C32.3495 10.7079 32.7579 10.2323 33.3055 9.99694C33.858 9.76155 34.4488 9.71351 35.0781 9.84802C35.3712 9.91047 35.6162 10.0354 35.8083 10.2227C36.0005 10.4101 36.1398 10.6407 36.2263 10.9049C36.3127 11.1691 36.3415 11.4669 36.3127 11.7936C36.2839 12.1202 36.1926 12.4565 36.0437 12.8072L31.2447 23.9905L31.2399 23.9953Z" fill="white"/>
<path d="M38.3153 6.88403C38.4113 6.14424 38.7188 5.6062 39.228 5.27954C39.7372 4.95288 40.3089 4.78955 40.943 4.78955C41.5771 4.78955 42.1055 4.95288 42.5282 5.27954C42.951 5.6062 43.1143 6.13943 43.0182 6.88403C42.9702 7.26353 42.8597 7.58539 42.6964 7.8496C42.533 8.11381 42.3361 8.32999 42.1007 8.49812C41.8653 8.66626 41.6011 8.78635 41.308 8.86321C41.0102 8.94007 40.7028 8.97851 40.3905 8.97851C40.0735 8.97851 39.7756 8.94007 39.5018 8.86321C39.2232 8.78635 38.9926 8.66626 38.8052 8.49812C38.6179 8.32999 38.4738 8.11381 38.3825 7.8496C38.2912 7.58539 38.2672 7.26353 38.3201 6.88403H38.3153ZM37.6331 12.2259C37.7388 11.4381 38.0414 10.8616 38.5506 10.4965C39.0598 10.1314 39.6315 9.94888 40.2608 9.94888C40.8901 9.94888 41.4185 10.1314 41.8269 10.4965C42.24 10.8616 42.3937 11.4381 42.288 12.2259L40.7364 24.0001H36.0767L37.6283 12.2259H37.6331Z" fill="white"/>
<path d="M45.3913 7.06657C45.4393 6.68707 45.5498 6.36041 45.7131 6.07698C45.8765 5.79836 46.0782 5.56297 46.3136 5.37082C46.549 5.18347 46.8084 5.03935 47.0966 4.93847C47.3801 4.84239 47.6731 4.78955 47.9757 4.78955C48.5618 4.78955 49.0614 4.9769 49.4601 5.3564C49.8636 5.73591 50.0126 6.30276 49.9117 7.06177L48.8692 14.9689L53.4569 10.5398C53.6827 10.3284 53.9325 10.1554 54.2159 10.0161C54.4994 9.88163 54.7828 9.79516 55.0662 9.75673C55.3496 9.7183 55.6331 9.73271 55.9069 9.79996C56.1855 9.86722 56.4305 9.99212 56.6515 10.1747C56.8677 10.3572 57.0262 10.583 57.1271 10.8568C57.2279 11.1306 57.2664 11.4141 57.252 11.7071C57.2375 12.0001 57.1607 12.2932 57.0358 12.5814C56.9061 12.8696 56.7235 13.1098 56.4881 13.3068L53.1207 16.1939L57.0934 23.9905H51.9821L49.6811 19.129L48.1487 20.4453L47.6827 23.9905H43.1575L45.3913 7.05697V7.06657Z" fill="white"/>
<path fill-rule="evenodd" clip-rule="evenodd" d="M70.3135 0C65.6729 0 61.4504 3.76141 60.8787 8.40193L59.8459 16.8039L59.6825 18.1681C59.5528 19.2154 60.7538 19.739 61.5897 18.9992L64.054 16.8039H78.4223C83.0629 16.8039 87.2854 13.0424 87.8571 8.40193C88.424 3.76141 85.1285 0 80.4832 0H70.3183H70.3135ZM72.9887 10.919C72.9647 11.2168 72.8926 11.5291 72.7821 11.8461C72.6717 12.168 72.4795 12.461 72.2153 12.7252C71.9463 12.9894 71.5812 13.2152 71.1104 13.4026C70.6444 13.5899 70.0391 13.6956 69.2994 13.7244C69.1985 13.7292 69.0736 13.7292 68.9343 13.7196C68.795 13.71 68.646 13.6908 68.4971 13.6668C68.3482 13.6428 68.2041 13.6091 68.0696 13.5659C67.9351 13.5227 67.8246 13.4794 67.7429 13.4314C67.5844 13.3353 67.4787 13.1864 67.4259 12.9798C67.373 12.7733 67.3922 12.5715 67.4835 12.3842C67.5652 12.2112 67.6901 12.0719 67.8582 11.971C68.0263 11.8701 68.2041 11.8317 68.3914 11.8605C68.4873 11.8751 68.585 11.8878 68.6855 11.901L68.6855 11.901C68.7511 11.9096 68.8179 11.9183 68.8862 11.9278C69.0592 11.9518 69.2465 11.9614 69.4531 11.9614C69.6885 11.9614 69.8902 11.9326 70.0632 11.8798C70.2361 11.8269 70.3802 11.75 70.5003 11.654C70.6156 11.5579 70.7069 11.4522 70.7693 11.3369C70.8318 11.2216 70.8654 11.1015 70.8798 10.9766L70.899 10.7797C70.6925 10.9718 70.4523 11.1159 70.1833 11.2216C69.9094 11.3273 69.6068 11.3802 69.2753 11.3802C68.9102 11.3802 68.574 11.3321 68.2665 11.236C67.9591 11.14 67.6949 10.9814 67.4739 10.7508C67.2529 10.5203 67.0896 10.2176 66.9839 9.83331C66.8782 9.44901 66.8494 8.97343 66.9022 8.40657L66.9455 7.92619C66.9935 7.34973 67.1088 6.86934 67.2769 6.48503C67.4499 6.10073 67.666 5.78848 67.9255 5.55789C68.1849 5.3225 68.4827 5.15917 68.8094 5.06309C69.136 4.96702 69.4867 4.91418 69.8518 4.91418C70.1304 4.91418 70.3994 4.96702 70.6685 5.0679C70.9375 5.16878 71.1681 5.3225 71.3602 5.52907C71.4659 5.32731 71.6148 5.17358 71.8118 5.0679C72.0087 4.96702 72.2153 4.91418 72.4315 4.91418C72.7245 4.91418 72.9695 5.00545 73.1713 5.18799C73.373 5.37054 73.4595 5.64436 73.4259 6.00945L72.9935 10.9286L72.9887 10.919ZM69.1264 8.60353C69.112 8.79088 69.1264 8.94941 69.1793 9.07431C69.2321 9.19921 69.2994 9.30009 69.381 9.38175C69.4627 9.46342 69.5588 9.51626 69.6644 9.54989C69.7701 9.58351 69.871 9.59793 69.9671 9.59793C70.0632 9.59793 70.164 9.58351 70.2697 9.54989C70.3802 9.51626 70.4811 9.46342 70.5772 9.39136C70.6733 9.3193 70.7597 9.22323 70.8366 9.10313C70.9135 8.98303 70.9615 8.83412 70.9855 8.66118L71.0672 7.71962C71.0768 7.54668 71.0528 7.39776 70.9951 7.27767C70.9375 7.15757 70.8702 7.06149 70.7837 6.98944C70.6973 6.91738 70.606 6.86454 70.5003 6.83091C70.3994 6.79728 70.2986 6.78287 70.2025 6.78287C70.1064 6.78287 70.0055 6.79728 69.8902 6.83091C69.7797 6.86454 69.6741 6.92218 69.5732 6.99904C69.4771 7.08071 69.3906 7.18159 69.3186 7.3113C69.2465 7.43619 69.2033 7.59472 69.1841 7.77727L69.112 8.60833L69.1264 8.60353ZM74.6702 6.45131C74.4444 6.84042 74.3099 7.32561 74.257 7.91648H74.2618L74.1754 8.92049C74.1273 9.51136 74.1802 10.0014 74.3387 10.3857C74.4972 10.77 74.723 11.0774 75.0064 11.3128C75.2947 11.5434 75.6213 11.7067 75.9864 11.8028C76.3515 11.8989 76.7214 11.9469 77.0817 11.9469C77.442 11.9469 77.8167 11.8989 78.201 11.8028C78.5853 11.7115 78.9408 11.5482 79.2674 11.3128C79.5941 11.0822 79.8727 10.77 80.0985 10.3857C80.3243 9.99655 80.4636 9.51136 80.5164 8.92049L80.6029 7.91648C80.651 7.32561 80.5981 6.83562 80.4396 6.45131C80.2811 6.067 80.0553 5.75956 79.7719 5.52417C79.4836 5.29358 79.157 5.13025 78.7919 5.03418C78.4268 4.9381 78.0713 4.89006 77.6966 4.89006C77.3219 4.89006 76.9472 4.9381 76.5629 5.03418C76.1786 5.12545 75.8231 5.29358 75.4964 5.52417C75.1698 5.75475 74.8911 6.067 74.6702 6.45131ZM78.3643 7.32081C78.4076 7.46012 78.4268 7.62345 78.4076 7.82041L78.3019 9.02137C78.2875 9.21352 78.2442 9.38166 78.1722 9.51617C78.1001 9.65067 78.0136 9.76116 77.9176 9.84763C77.8215 9.9341 77.711 10.0014 77.5909 10.0398C77.4708 10.083 77.3555 10.1022 77.2354 10.1022C77.1153 10.1022 77.0048 10.0782 76.8895 10.0398C76.7791 10.0014 76.683 9.9341 76.5965 9.84763C76.51 9.76116 76.4476 9.65067 76.3995 9.51617C76.3563 9.38166 76.3371 9.21833 76.3563 9.02137L76.462 7.82041C76.4764 7.62345 76.5196 7.45532 76.5917 7.32081C76.6638 7.1863 76.7454 7.07581 76.8463 6.98934C76.9424 6.90287 77.0529 6.83562 77.173 6.79719C77.2931 6.75876 77.4084 6.73954 77.5285 6.73954C77.6486 6.73954 77.759 6.75876 77.8743 6.79719C77.9848 6.83562 78.0857 6.90287 78.1674 6.98934C78.2538 7.07581 78.3163 7.1863 78.3643 7.32081Z" fill="white"/>
</svg>
