<svg width="39" height="38" viewBox="0 0 39 38" fill="none" xmlns="http://www.w3.org/2000/svg">
<path d="M15.169 17.0811C15.0525 17.0808 14.9385 17.1142 14.8415 17.1768C14.7445 17.2395 14.6688 17.3287 14.624 17.4331C14.5793 17.5375 14.5674 17.6525 14.59 17.7634C14.6126 17.8744 14.6686 17.9763 14.751 18.0563C14.8333 18.1364 14.9383 18.1909 15.0525 18.2131C15.1668 18.2352 15.2853 18.224 15.393 18.1807C15.5007 18.1375 15.5928 18.0643 15.6575 17.9702C15.7223 17.8762 15.7569 17.7657 15.7569 17.6526C15.7569 17.5012 15.695 17.356 15.5848 17.2489C15.4746 17.1417 15.325 17.0814 15.169 17.0811Z" fill="#F5F5F5"/>
<path d="M20.9863 18.2479C21.3364 18.2479 21.6202 17.9725 21.6202 17.6327C21.6202 17.293 21.3364 17.0176 20.9863 17.0176C20.6361 17.0176 20.3523 17.293 20.3523 17.6327C20.3523 17.9725 20.6361 18.2479 20.9863 18.2479Z" fill="#F5F5F5"/>
<path d="M26.2507 11.3994H13.7269C13.1211 11.3994 12.5401 11.6326 12.1114 12.0478C11.6826 12.463 11.4412 13.0262 11.4399 13.614V20.8259C11.4399 21.4145 11.6808 21.9791 12.1097 22.3954C12.5385 22.8117 13.1202 23.0458 13.7269 23.0461H18.1497L19.6551 26.4854C19.6551 26.4854 19.7577 26.7829 20.009 26.7829C20.2602 26.7829 20.3628 26.4854 20.3628 26.4854L21.8682 23.0461H26.2484C26.855 23.0469 27.4372 22.814 27.8669 22.3986C28.2966 21.9831 28.5387 21.419 28.5399 20.8304V13.614C28.5387 13.0258 28.2969 12.4622 27.8677 12.047C27.4384 11.6317 26.8569 11.3988 26.2507 11.3994ZM16.8114 17.7747C16.8045 19.0945 15.3994 19.1314 15.3994 19.1314C15.2406 19.1318 15.0834 19.1009 14.9372 19.0408C14.791 18.9806 14.6588 18.8923 14.5487 18.7813V19.0196H13.5263V14.9248C13.5897 14.9349 14.5487 14.9248 14.5487 14.9248V16.4907C14.7896 16.0925 15.4858 16.0992 15.4858 16.0992C17.0005 16.2334 16.8114 17.7747 16.8114 17.7747ZM18.6131 16.2234V19.0263H17.6114V16.2513C17.6114 15.8733 17.1284 15.7682 17.1284 15.7682V14.7895C18.7283 14.8533 18.6131 16.2234 18.6131 16.2234ZM20.9864 19.1314C20.0643 19.1314 19.3081 18.4603 19.3081 17.6315C19.3081 16.8027 20.0597 16.1328 20.9864 16.1328C21.9132 16.1328 22.6647 16.8039 22.6647 17.6315C22.6647 18.4592 21.9132 19.1325 20.9864 19.1325V19.1314ZM26.472 19.1314C26.472 19.1314 26.487 20.5563 24.9955 20.5563H24.5413V19.6336H24.8156C24.8156 19.6336 25.4415 19.6895 25.4346 18.7522C25.4346 18.7522 25.3124 19.1314 24.4341 19.1314C24.4341 19.1314 23.1869 19.0442 23.1869 17.8642V17.4168C23.1869 17.4168 23.2157 16.1943 24.5851 16.0959C24.7511 16.085 24.9174 16.1137 25.0693 16.1796C25.2212 16.2455 25.3542 16.3466 25.4565 16.4739V16.1731H26.472V19.1314Z" fill="#F5F5F5"/>
<path d="M24.8805 18.2335C25.2223 18.2335 25.4995 17.9646 25.4995 17.6328C25.4995 17.3011 25.2223 17.0322 24.8805 17.0322C24.5386 17.0322 24.2615 17.3011 24.2615 17.6328C24.2615 17.9646 24.5386 18.2335 24.8805 18.2335Z" fill="#F5F5F5"/>
</svg>
