<svg width="35" height="34" viewBox="0 0 35 34" fill="none" xmlns="http://www.w3.org/2000/svg">
<path d="M12.6646 14.7798C12.5359 14.7795 12.4099 14.8164 12.3028 14.8856C12.1956 14.9548 12.112 15.0533 12.0626 15.1687C12.0131 15.284 12.0001 15.411 12.025 15.5335C12.05 15.6561 12.1119 15.7687 12.2028 15.8571C12.2938 15.9455 12.4097 16.0058 12.5359 16.0302C12.6622 16.0547 12.7931 16.0423 12.912 15.9945C13.031 15.9468 13.1327 15.8658 13.2042 15.762C13.2758 15.6581 13.314 15.536 13.314 15.4111C13.314 15.2439 13.2456 15.0835 13.1239 14.9651C13.0021 14.8468 12.8369 14.7801 12.6646 14.7798Z" fill="#2D2B2B"/>
<path d="M19.0909 16.0685C19.4777 16.0685 19.7912 15.7643 19.7912 15.389C19.7912 15.0137 19.4777 14.7095 19.0909 14.7095C18.7042 14.7095 18.3906 15.0137 18.3906 15.389C18.3906 15.7643 18.7042 16.0685 19.0909 16.0685Z" fill="#2D2B2B"/>
<path d="M24.9056 8.50366H11.0716C10.4025 8.50366 9.7607 8.76123 9.2871 9.21985C8.8135 9.67847 8.54676 10.3007 8.54541 10.9499V18.9163C8.54541 19.5665 8.81152 20.1901 9.28523 20.65C9.75894 21.1098 10.4015 21.3684 11.0716 21.3687H15.9571L17.62 25.1678C17.62 25.1678 17.7333 25.4964 18.0109 25.4964C18.2884 25.4964 18.4018 25.1678 18.4018 25.1678L20.0646 21.3687H24.903C25.5731 21.3697 26.2162 21.1124 26.6909 20.6535C27.1656 20.1945 27.433 19.5714 27.4343 18.9212V10.9499C27.433 10.3002 27.1659 9.67767 26.6917 9.21898C26.2176 8.76029 25.5751 8.50301 24.9056 8.50366ZM14.4788 15.5459C14.4712 17.0038 12.9191 17.0445 12.9191 17.0445C12.7437 17.0449 12.57 17.0109 12.4085 16.9444C12.247 16.8779 12.101 16.7805 11.9794 16.6578V16.921H10.85V12.3979C10.9201 12.409 11.9794 12.3979 11.9794 12.3979V14.1276C12.2455 13.6877 13.0146 13.6951 13.0146 13.6951C14.6876 13.8434 14.4788 15.5459 14.4788 15.5459ZM16.4689 13.8323V16.9284H15.3625V13.8632C15.3625 13.4456 14.829 13.3294 14.829 13.3294V12.2484C16.5963 12.3188 16.4689 13.8323 16.4689 13.8323ZM19.0906 17.0445C18.072 17.0445 17.2367 16.3032 17.2367 15.3877C17.2367 14.4723 18.0669 13.7322 19.0906 13.7322C20.1143 13.7322 20.9445 14.4735 20.9445 15.3877C20.9445 16.302 20.1143 17.0458 19.0906 17.0458V17.0445ZM25.1501 17.0445C25.1501 17.0445 25.1666 18.6185 23.519 18.6185H23.0173V17.5993H23.3204C23.3204 17.5993 24.0118 17.661 24.0041 16.6257C24.0041 16.6257 23.8692 17.0445 22.8989 17.0445C22.8989 17.0445 21.5213 16.9482 21.5213 15.6447V15.1505C21.5213 15.1505 21.5531 13.8002 23.0657 13.6914C23.2491 13.6794 23.4328 13.7111 23.6006 13.7839C23.7684 13.8567 23.9153 13.9684 24.0283 14.109V13.7767H25.1501V17.0445Z" fill="#2D2B2B"/>
<path d="M23.3918 16.0525C23.7694 16.0525 24.0755 15.7555 24.0755 15.389C24.0755 15.0226 23.7694 14.7256 23.3918 14.7256C23.0141 14.7256 22.708 15.0226 22.708 15.389C22.708 15.7555 23.0141 16.0525 23.3918 16.0525Z" fill="#2D2B2B"/>
<rect x="1.48975" y="0.5" width="33" height="33" rx="7.5" stroke="#F2F2F2"/>
</svg>
