<svg width="51" height="50" viewBox="0 0 51 50" fill="none" xmlns="http://www.w3.org/2000/svg">
<circle cx="25.9897" cy="25" r="25" fill="#FF4747"/>
<g filter="url(#filter0_d_439_8770)">
<path fill-rule="evenodd" clip-rule="evenodd" d="M37.1305 14.4066C38.0937 15.3874 38.0866 16.9703 37.1147 17.9421L18.3525 36.7042C17.3806 37.6761 15.812 37.669 14.8488 36.6882C13.8857 35.7075 13.8928 34.1246 14.8647 33.1527L33.6269 14.3906C34.5988 13.4187 36.1674 13.4259 37.1305 14.4066Z" fill="white"/>
<path fill-rule="evenodd" clip-rule="evenodd" d="M14.8494 14.4066C13.8863 15.3874 13.8934 16.9703 14.8653 17.9421L33.6275 36.7042C34.5994 37.6761 36.168 37.669 37.1312 36.6882C38.0943 35.7075 38.0872 34.1246 37.1153 33.1527L18.3531 14.3906C17.3812 13.4187 15.8126 13.4259 14.8494 14.4066Z" fill="white"/>
</g>
<defs>
<filter id="filter0_d_439_8770" x="10.1311" y="13.6664" width="31.7178" height="31.7621" filterUnits="userSpaceOnUse" color-interpolation-filters="sRGB">
<feFlood flood-opacity="0" result="BackgroundImageFix"/>
<feColorMatrix in="SourceAlpha" type="matrix" values="0 0 0 0 0 0 0 0 0 0 0 0 0 0 0 0 0 0 127 0" result="hardAlpha"/>
<feOffset dy="4"/>
<feGaussianBlur stdDeviation="2"/>
<feComposite in2="hardAlpha" operator="out"/>
<feColorMatrix type="matrix" values="0 0 0 0 0 0 0 0 0 0 0 0 0 0 0 0 0 0 0.25 0"/>
<feBlend mode="normal" in2="BackgroundImageFix" result="effect1_dropShadow_439_8770"/>
<feBlend mode="normal" in="SourceGraphic" in2="effect1_dropShadow_439_8770" result="shape"/>
</filter>
</defs>
</svg>
