<svg width="39" height="38" viewBox="0 0 39 38" fill="none" xmlns="http://www.w3.org/2000/svg">
<path d="M23.9008 10.4538L21.7421 10.4502C19.3169 10.4502 17.7496 12.102 17.7496 14.6585V16.5989H15.5792C15.3916 16.5989 15.2397 16.755 15.2397 16.9477V19.759C15.2397 19.9517 15.3918 20.1077 15.5792 20.1077H17.7496V27.2015C17.7496 27.3942 17.9015 27.5502 18.0891 27.5502H20.9209C21.1085 27.5502 21.2604 27.394 21.2604 27.2015V20.1077H23.7981C23.9857 20.1077 24.1376 19.9517 24.1376 19.759L24.1386 16.9477C24.1386 16.8552 24.1028 16.7666 24.0392 16.7011C23.9756 16.6357 23.8891 16.5989 23.799 16.5989H21.2604V14.954C21.2604 14.1634 21.4438 13.7621 22.4463 13.7621L23.9005 13.7616C24.0879 13.7616 24.2397 13.6054 24.2397 13.4129V10.8024C24.2397 10.6101 24.088 10.4541 23.9008 10.4538Z" fill="#F5F5F5"/>
</svg>
