<svg width="35" height="34" viewBox="0 0 35 34" fill="none" xmlns="http://www.w3.org/2000/svg">
<path d="M22.3564 8.03157L20.0911 8.02783C17.5461 8.02783 15.9014 9.76118 15.9014 12.444V14.4801H13.6238C13.427 14.4801 13.2676 14.644 13.2676 14.8462V17.7963C13.2676 17.9985 13.4271 18.1622 13.6238 18.1622H15.9014V25.6064C15.9014 25.8086 16.0608 25.9723 16.2576 25.9723H19.2293C19.4261 25.9723 19.5855 25.8084 19.5855 25.6064V18.1622H22.2486C22.4454 18.1622 22.6048 17.9985 22.6048 17.7963L22.6059 14.8462C22.6059 14.7491 22.5683 14.6562 22.5016 14.5875C22.4349 14.5188 22.344 14.4801 22.2495 14.4801H19.5855V12.7541C19.5855 11.9244 19.778 11.5033 20.83 11.5033L22.356 11.5027C22.5526 11.5027 22.712 11.3388 22.712 11.1368V8.39746C22.712 8.19566 22.5528 8.03194 22.3564 8.03157Z" fill="#2D2B2B"/>
<rect x="1.48975" y="0.5" width="33" height="33" rx="7.5" stroke="#F2F2F2"/>
</svg>
