<svg width="39" height="38" viewBox="0 0 39 38" fill="none" xmlns="http://www.w3.org/2000/svg">
<path fill-rule="evenodd" clip-rule="evenodd" d="M11.4399 19.0002C11.4399 16.1555 11.4399 14.7332 11.9534 13.6297C12.5002 12.4547 13.4444 11.5105 14.6195 10.9637C15.7229 10.4502 17.1453 10.4502 19.9899 10.4502C22.8346 10.4502 24.257 10.4502 25.3604 10.9637C26.5355 11.5105 27.4797 12.4547 28.0265 13.6297C28.5399 14.7332 28.5399 16.1555 28.5399 19.0002C28.5399 21.8449 28.5399 23.2672 28.0265 24.3706C27.4797 25.5457 26.5355 26.4899 25.3604 27.0367C24.257 27.5502 22.8346 27.5502 19.9899 27.5502C17.1453 27.5502 15.7229 27.5502 14.6195 27.0367C13.4444 26.4899 12.5002 25.5457 11.9534 24.3706C11.4399 23.2672 11.4399 21.8449 11.4399 19.0002ZM19.9895 14.4737C17.4898 14.4737 15.463 16.5004 15.463 19.0002C15.463 21.4999 17.4898 23.5266 19.9895 23.5266C22.4893 23.5266 24.516 21.4999 24.516 19.0002C24.516 16.5004 22.4893 14.4737 19.9895 14.4737ZM19.9895 21.8292C18.4301 21.8292 17.1605 20.5595 17.1605 19.0002C17.1605 17.4397 18.4301 16.1711 19.9895 16.1711C21.5489 16.1711 22.8186 17.4397 22.8186 19.0002C22.8186 20.5595 21.5489 21.8292 19.9895 21.8292ZM26.8297 14.2976C26.8297 15.0059 26.2555 15.5801 25.5472 15.5801C24.8389 15.5801 24.2647 15.0059 24.2647 14.2976C24.2647 13.5893 24.8389 13.0151 25.5472 13.0151C26.2555 13.0151 26.8297 13.5893 26.8297 14.2976Z" fill="#F5F5F5"/>
</svg>
