<svg width="35" height="34" viewBox="0 0 35 34" fill="none" xmlns="http://www.w3.org/2000/svg">
<path fill-rule="evenodd" clip-rule="evenodd" d="M9.01758 17.0001C9.01758 13.7571 9.01758 12.1357 9.67993 10.9111C10.1886 9.97067 10.9604 9.19888 11.9009 8.69018C13.1254 8.02783 14.7469 8.02783 17.9898 8.02783C21.2327 8.02783 22.8542 8.02783 24.0787 8.69018C25.0192 9.19888 25.791 9.97067 26.2997 10.9111C26.962 12.1357 26.962 13.7571 26.962 17.0001C26.962 20.243 26.962 21.8645 26.2997 23.089C25.791 24.0294 25.0192 24.8012 24.0787 25.3099C22.8542 25.9723 21.2327 25.9723 17.9898 25.9723C14.7469 25.9723 13.1254 25.9723 11.9009 25.3099C10.9604 24.8012 10.1886 24.0294 9.67993 23.089C9.01758 21.8645 9.01758 20.243 9.01758 17.0001ZM17.9897 12.2501C15.3665 12.2501 13.2397 14.3769 13.2397 17.0001C13.2397 19.6233 15.3665 21.7501 17.9897 21.7501C20.6129 21.7501 22.7397 19.6233 22.7397 17.0001C22.7397 14.3769 20.6129 12.2501 17.9897 12.2501ZM17.9897 19.9688C16.3534 19.9688 15.021 18.6365 15.021 17.0001C15.021 15.3625 16.3534 14.0313 17.9897 14.0313C19.6261 14.0313 20.9585 15.3625 20.9585 17.0001C20.9585 18.6365 19.6261 19.9688 17.9897 19.9688ZM25.1676 12.0653C25.1676 12.8086 24.565 13.4112 23.8217 13.4112C23.0785 13.4112 22.4759 12.8086 22.4759 12.0653C22.4759 11.322 23.0785 10.7195 23.8217 10.7195C24.565 10.7195 25.1676 11.322 25.1676 12.0653Z" fill="#2D2B2B"/>
<rect x="1.48975" y="0.5" width="33" height="33" rx="7.5" stroke="#F2F2F2"/>
</svg>
