<svg width="15" height="14" viewBox="0 0 15 14" fill="none" xmlns="http://www.w3.org/2000/svg">
<path d="M8.66717 0.677419C8.66717 0.303291 8.36387 0 7.98975 0C7.61562 0 7.31233 0.303291 7.31233 0.677419V6.32258H1.66717C1.29304 6.32258 0.989746 6.62587 0.989746 7C0.989746 7.37413 1.29304 7.67742 1.66717 7.67742H7.31233V13.3226C7.31233 13.6967 7.61562 14 7.98975 14C8.36387 14 8.66716 13.6967 8.66716 13.3226V7.67742H14.3123C14.6865 7.67742 14.9897 7.37413 14.9897 7C14.9897 6.62587 14.6865 6.32258 14.3123 6.32258H8.66717V0.677419Z" fill="#C8C8C8"/>
</svg>
