<svg width="33" height="155" viewBox="0 0 33 155" fill="none" xmlns="http://www.w3.org/2000/svg">
<line x1="15.2173" y1="119" x2="15.2173" y2="155" stroke="#9E9E9E" stroke-width="2"/>
<path d="M2.21729 77C2.21729 69.8203 8.03758 64 15.2173 64C22.397 64 28.2173 69.8203 28.2173 77V105C28.2173 112.18 22.397 118 15.2173 118C8.03758 118 2.21729 112.18 2.21729 105V77Z" stroke="#9E9E9E" stroke-width="2"/>
<path d="M13.2173 79.1C13.2173 77.9402 14.1575 77 15.3173 77C16.4771 77 17.4173 77.9402 17.4173 79.1V88.9C17.4173 90.0598 16.4771 91 15.3173 91C14.1575 91 13.2173 90.0598 13.2173 88.9V79.1Z" fill="#9E9E9E"/>
<path d="M11.7329 6.45996C11.9653 6.45996 12.1704 6.4235 12.3481 6.35059C12.5304 6.28223 12.6945 6.15918 12.8403 5.98144C12.9862 5.80827 13.1252 5.56673 13.2573 5.25684C13.3895 4.9515 13.5239 4.56413 13.6606 4.09473C13.8065 3.60254 13.9683 3.1582 14.146 2.76172C14.3283 2.36523 14.5356 2.02572 14.7681 1.74316C15.0005 1.46061 15.2671 1.24414 15.5679 1.09375C15.8687 0.943359 16.2127 0.868163 16.6001 0.868163C16.9875 0.868163 17.3452 0.947916 17.6733 1.10742C18.0015 1.26693 18.2863 1.49479 18.5278 1.79102C18.7739 2.0918 18.9653 2.44954 19.1021 2.86426C19.2388 3.27897 19.3071 3.74154 19.3071 4.25195C19.3071 4.99935 19.1636 5.63281 18.8765 6.15234C18.5939 6.67643 18.2225 7.07519 17.7622 7.34863C17.3065 7.62207 16.8188 7.75879 16.2993 7.75879L16.2993 6.44629C16.673 6.44629 17.0034 6.36654 17.2905 6.20703C17.5822 6.04753 17.8101 5.80599 17.9741 5.48242C18.1427 5.15885 18.2271 4.7487 18.2271 4.25195C18.2271 3.78255 18.1564 3.39518 18.0151 3.08984C17.8739 2.7845 17.6825 2.55664 17.4409 2.40625C17.1994 2.26042 16.9237 2.1875 16.6138 2.1875C16.4041 2.1875 16.2127 2.23079 16.0396 2.31738C15.8709 2.40853 15.7137 2.54753 15.5679 2.73437C15.422 2.92578 15.2876 3.16732 15.1646 3.45898C15.0415 3.75521 14.923 4.1084 14.8091 4.51855C14.6496 5.08366 14.4718 5.57129 14.2759 5.98144C14.0799 6.3916 13.8589 6.72884 13.6128 6.99316C13.3713 7.26204 13.0955 7.46029 12.7856 7.58789C12.4803 7.72005 12.134 7.78613 11.7466 7.78613C11.341 7.78613 10.9741 7.7041 10.646 7.54004C10.3179 7.37598 10.0376 7.14128 9.80518 6.83594C9.57275 6.5306 9.39274 6.16374 9.26514 5.73535C9.14209 5.31152 9.08057 4.83756 9.08057 4.31348C9.08057 3.85319 9.14437 3.39974 9.27197 2.95312C9.39958 2.51107 9.59098 2.10775 9.84619 1.74316C10.1014 1.38314 10.4159 1.09375 10.7896 0.874999C11.1678 0.660806 11.6053 0.55371 12.1021 0.55371L12.1021 1.86621C11.7603 1.86621 11.4663 1.93229 11.2202 2.06445C10.9787 2.19661 10.7782 2.37663 10.6187 2.60449C10.4591 2.83691 10.3407 3.09896 10.2632 3.39062C10.1903 3.68685 10.1538 3.99447 10.1538 4.31348C10.1538 4.77376 10.2176 5.16341 10.3452 5.48242C10.4728 5.80143 10.6551 6.04297 10.8921 6.20703C11.1291 6.37565 11.4093 6.45996 11.7329 6.45996ZM12.3823 15.9766L12.3823 17.2891C11.7534 17.2207 11.1906 17.0407 10.6938 16.749C10.1971 16.4574 9.8029 16.0449 9.51123 15.5117C9.22412 14.9785 9.08057 14.3132 9.08057 13.5156C9.08057 12.9323 9.18994 12.4014 9.40869 11.9229C9.62744 11.4489 9.93734 11.041 10.3384 10.6992C10.744 10.3574 11.2293 10.0931 11.7944 9.90625C12.3641 9.72396 12.9976 9.63281 13.6948 9.63281L14.686 9.63281C15.3833 9.63281 16.0145 9.72396 16.5796 9.90625C17.1493 10.0931 17.6369 10.3597 18.0425 10.7061C18.4481 11.057 18.7603 11.4785 18.979 11.9707C19.1978 12.4629 19.3071 13.0166 19.3071 13.6318C19.3071 14.3838 19.1659 15.0195 18.8833 15.5391C18.6007 16.0586 18.2088 16.4619 17.7075 16.749C17.2108 17.0407 16.6343 17.2207 15.978 17.2891L15.978 15.9766C16.4429 15.9128 16.8416 15.7943 17.1743 15.6211C17.5116 15.4479 17.7713 15.2018 17.9536 14.8828C18.1359 14.5638 18.2271 14.1468 18.2271 13.6318C18.2271 13.1898 18.1427 12.8001 17.9741 12.4629C17.8055 12.1302 17.5662 11.8499 17.2563 11.6221C16.9465 11.3988 16.575 11.2301 16.1421 11.1162C15.7091 11.0023 15.2284 10.9453 14.6997 10.9453L13.6948 10.9453C13.2072 10.9453 12.7492 10.9954 12.3208 11.0957C11.8924 11.2005 11.5164 11.3577 11.1929 11.5674C10.8693 11.777 10.6141 12.0436 10.4272 12.3672C10.245 12.6908 10.1538 13.0736 10.1538 13.5156C10.1538 14.0762 10.2427 14.5228 10.4204 14.8555C10.5981 15.1882 10.8534 15.4388 11.186 15.6074C11.5187 15.7806 11.9175 15.9036 12.3823 15.9766ZM19.1704 19.5869L19.1704 22.8818C19.1704 23.6292 19.0565 24.2604 18.8286 24.7754C18.6007 25.2949 18.2635 25.6891 17.8169 25.958C17.3748 26.2314 16.8302 26.3682 16.1831 26.3682C15.7274 26.3682 15.3104 26.2747 14.9321 26.0879C14.5584 25.9056 14.2394 25.6413 13.9751 25.2949C13.7153 24.9531 13.5216 24.543 13.394 24.0645L13.2505 23.6953L13.2505 20.5986L14.3237 20.585L14.3237 22.9229C14.3237 23.3968 14.4058 23.791 14.5698 24.1055C14.7384 24.4199 14.964 24.6569 15.2466 24.8164C15.5291 24.9759 15.8413 25.0557 16.1831 25.0557C16.5659 25.0557 16.9009 24.9805 17.188 24.8301C17.4751 24.6797 17.6961 24.4427 17.8511 24.1191C18.0106 23.8001 18.0903 23.3877 18.0903 22.8818L18.0903 20.9062L9.21728 20.9062L9.21728 19.5869L19.1704 19.5869ZM9.21728 25.4043L13.729 22.9844L13.7358 24.3584L9.29932 26.8125L9.21728 26.8125L9.21728 25.4043ZM14.5083 36.377L13.8794 36.377C13.132 36.377 12.4621 36.2835 11.8696 36.0967C11.2772 35.9098 10.7736 35.6409 10.3589 35.29C9.94417 34.9391 9.62744 34.5176 9.40869 34.0254C9.18994 33.5378 9.08056 32.9909 9.08056 32.3848C9.08057 31.7969 9.18994 31.2568 9.40869 30.7646C9.62744 30.277 9.94417 29.8532 10.3589 29.4932C10.7736 29.1377 11.2772 28.862 11.8696 28.666C12.4621 28.4701 13.132 28.3721 13.8794 28.3721L14.5083 28.3721C15.2557 28.3721 15.9233 28.4678 16.5112 28.6592C17.1037 28.8551 17.6073 29.1309 18.022 29.4863C18.4412 29.8418 18.7603 30.2633 18.979 30.751C19.1978 31.2432 19.3071 31.7832 19.3071 32.3711C19.3071 32.9772 19.1978 33.5241 18.979 34.0117C18.7603 34.5039 18.4412 34.9255 18.022 35.2764C17.6073 35.6318 17.1037 35.903 16.5112 36.0898C15.9233 36.2812 15.2557 36.377 14.5083 36.377ZM13.8794 35.0713L14.522 35.0713C15.1144 35.0713 15.6385 35.0098 16.0942 34.8867C16.55 34.7682 16.9328 34.5928 17.2427 34.3604C17.5526 34.1279 17.7873 33.8431 17.9468 33.5059C18.1063 33.1732 18.186 32.7949 18.186 32.3711C18.186 31.9609 18.1063 31.5895 17.9468 31.2568C17.7873 30.9287 17.5526 30.6462 17.2427 30.4092C16.9328 30.1768 16.55 29.9967 16.0942 29.8691C15.6385 29.7415 15.1144 29.6777 14.522 29.6777L13.8794 29.6777C13.2824 29.6777 12.7537 29.7415 12.2935 29.8691C11.8377 29.9967 11.4526 30.179 11.1382 30.416C10.8283 30.6576 10.5936 30.9424 10.4341 31.2705C10.2746 31.6032 10.1948 31.9746 10.1948 32.3848C10.1948 32.8132 10.2746 33.1937 10.4341 33.5264C10.5936 33.859 10.8283 34.1393 11.1382 34.3672C11.4526 34.5996 11.8377 34.7751 12.2935 34.8936C12.7537 35.012 13.2824 35.0713 13.8794 35.0713ZM10.2905 44.8887L9.21728 44.8887L9.21728 39.9121L10.2905 39.9121L10.2905 44.8887ZM19.1704 40.1719L9.21728 40.1719L9.21728 38.8525L19.1704 38.8525L19.1704 40.1719ZM10.2905 52.9355L9.21728 52.9355L9.21728 47.959L10.2905 47.959L10.2905 52.9355ZM19.1704 48.2187L9.21728 48.2187L9.21728 46.8994L19.1704 46.8994L19.1704 48.2187Z" fill="#9E9E9E"/>
</svg>
